<mxfile host="Electron" modified="2024-03-21T10:49:44.512Z" agent="Mozilla/5.0 (Macintosh; Intel Mac OS X 10_15_7) AppleWebKit/537.36 (KHTML, like Gecko) draw.io/24.0.4 Chrome/120.0.6099.109 Electron/28.1.0 Safari/537.36" etag="E1xVILW1wvGa-BWvt9Qg" version="24.0.4" type="device">
  <diagram name="Page-1" id="rXkp5cVVGAin2ytoFDvF">
    <mxGraphModel dx="1434" dy="764" grid="1" gridSize="10" guides="1" tooltips="1" connect="1" arrows="1" fold="1" page="1" pageScale="1" pageWidth="827" pageHeight="1169" math="0" shadow="0">
      <root>
        <mxCell id="0" />
        <mxCell id="1" parent="0" />
        <mxCell id="1dmQvcjcGbXdfL5Qe-E3-1" value="Main Screen&amp;nbsp;&lt;div&gt;&lt;br&gt;&lt;/div&gt;" style="text;html=1;align=center;verticalAlign=middle;whiteSpace=wrap;rounded=0;" vertex="1" parent="1">
          <mxGeometry x="250" y="40" width="60" height="30" as="geometry" />
        </mxCell>
        <mxCell id="1dmQvcjcGbXdfL5Qe-E3-3" value="DATE&amp;nbsp;&lt;div&gt;Temperature&lt;/div&gt;&lt;div&gt;WMO Weather&lt;span style=&quot;background-color: initial;&quot;&gt;&amp;nbsp;&lt;/span&gt;&lt;/div&gt;&lt;div&gt;&lt;br&gt;&lt;/div&gt;" style="rounded=1;whiteSpace=wrap;html=1;" vertex="1" parent="1">
          <mxGeometry x="100" y="117.5" width="420" height="90" as="geometry" />
        </mxCell>
        <mxCell id="1dmQvcjcGbXdfL5Qe-E3-4" value="ICON&lt;div&gt;&lt;br&gt;&lt;/div&gt;" style="ellipse;whiteSpace=wrap;html=1;" vertex="1" parent="1">
          <mxGeometry x="380" y="125" width="90" height="75" as="geometry" />
        </mxCell>
        <mxCell id="1dmQvcjcGbXdfL5Qe-E3-5" value="Sun rise - Sun set&lt;div&gt;Day Light&amp;nbsp;&lt;/div&gt;&lt;div&gt;max min temperature&amp;nbsp;&lt;/div&gt;&lt;div&gt;UV Index&amp;nbsp;&lt;/div&gt;&lt;div&gt;Pressure mm HG&amp;nbsp;&lt;/div&gt;&lt;div&gt;Humidity&amp;nbsp;&lt;/div&gt;&lt;div&gt;wind&amp;nbsp;&lt;/div&gt;&lt;div&gt;Precipprob&amp;nbsp;&lt;/div&gt;" style="rounded=1;whiteSpace=wrap;html=1;" vertex="1" parent="1">
          <mxGeometry x="100" y="260" width="420" height="200" as="geometry" />
        </mxCell>
        <mxCell id="1dmQvcjcGbXdfL5Qe-E3-6" value="Hourly Temprature and icon , Rain percenatge&amp;nbsp;" style="rounded=1;whiteSpace=wrap;html=1;" vertex="1" parent="1">
          <mxGeometry x="100" y="510" width="420" height="130" as="geometry" />
        </mxCell>
        <mxCell id="1dmQvcjcGbXdfL5Qe-E3-7" value="7 Days forecast&amp;nbsp;&lt;div&gt;&lt;br&gt;&lt;/div&gt;&lt;div&gt;Temperature min and max&amp;nbsp;&lt;/div&gt;&lt;div&gt;WMO Code and icon&lt;/div&gt;" style="rounded=1;whiteSpace=wrap;html=1;" vertex="1" parent="1">
          <mxGeometry x="100" y="670" width="410" height="250" as="geometry" />
        </mxCell>
      </root>
    </mxGraphModel>
  </diagram>
</mxfile>
